<svg width="710" height="581" viewBox="0 0 710 581" fill="none" xmlns="http://www.w3.org/2000/svg">
<rect width="710" height="581" fill="white"/>
<rect x="136" y="58" width="546" height="329" fill="#F7F8FE"/>
<rect x="136" y="42" width="546" height="16" fill="#6C63FF"/>
<rect x="136" y="24" width="546" height="26" rx="5" fill="#6C63FF"/>
<path d="M153.478 49.9569C157.609 49.9569 160.957 46.6087 160.957 42.4784C160.957 38.3482 157.609 35 153.478 35C149.348 35 146 38.3482 146 42.4784C146 46.6087 149.348 49.9569 153.478 49.9569Z" fill="white"/>
<path d="M174.978 49.9569C179.109 49.9569 182.457 46.6087 182.457 42.4784C182.457 38.3482 179.109 35 174.978 35C170.848 35 167.5 38.3482 167.5 42.4784C167.5 46.6087 170.848 49.9569 174.978 49.9569Z" fill="white"/>
<path d="M196.478 49.9569C200.609 49.9569 203.957 46.6087 203.957 42.4784C203.957 38.3482 200.609 35 196.478 35C192.348 35 189 38.3482 189 42.4784C189 46.6087 192.348 49.9569 196.478 49.9569Z" fill="white"/>
<path d="M607 107H295C291.552 107 288.246 108.37 285.808 110.808C283.37 113.246 282 116.552 282 120C282 123.448 283.37 126.754 285.808 129.192C288.246 131.63 291.552 133 295 133H607C610.448 133 613.754 131.63 616.192 129.192C618.63 126.754 620 123.448 620 120C620 116.552 618.63 113.246 616.192 110.808C613.754 108.37 610.448 107 607 107ZM607 131H295C292.083 131 289.285 129.841 287.222 127.778C285.159 125.715 284 122.917 284 120C284 117.083 285.159 114.285 287.222 112.222C289.285 110.159 292.083 109 295 109H607C609.917 109 612.715 110.159 614.778 112.222C616.841 114.285 618 117.083 618 120C618 122.917 616.841 125.715 614.778 127.778C612.715 129.841 609.917 131 607 131Z" fill="#CCCCCC"/>
<path d="M620.385 203H389.615C387.065 203 384.62 204.37 382.816 206.808C381.013 209.246 380 212.552 380 216C380 219.448 381.013 222.754 382.816 225.192C384.62 227.63 387.065 229 389.615 229H620.385C622.935 229 625.38 227.63 627.184 225.192C628.987 222.754 630 219.448 630 216C630 212.552 628.987 209.246 627.184 206.808C625.38 204.37 622.935 203 620.385 203Z" fill="white"/>
<path d="M620.385 251H389.615C387.065 251 384.62 252.37 382.816 254.808C381.013 257.246 380 260.552 380 264C380 267.448 381.013 270.754 382.816 273.192C384.62 275.63 387.065 277 389.615 277H620.385C622.935 277 625.38 275.63 627.184 273.192C628.987 270.754 630 267.448 630 264C630 260.552 628.987 257.246 627.184 254.808C625.38 252.37 622.935 251 620.385 251Z" fill="white"/>
<path d="M620.385 299H389.615C387.065 299 384.62 300.37 382.816 302.808C381.013 305.246 380 308.552 380 312C380 315.448 381.013 318.754 382.816 321.192C384.62 323.63 387.065 325 389.615 325H620.385C622.935 325 625.38 323.63 627.184 321.192C628.987 318.754 630 315.448 630 312C630 308.552 628.987 305.246 627.184 302.808C625.38 300.37 622.935 299 620.385 299Z" fill="white"/>
<path d="M665.872 30H647.373C647.006 30.0068 646.657 30.1469 646.401 30.3903C646.144 30.6337 646 30.961 646 31.3019C646 31.6428 646.144 31.97 646.401 32.2135C646.657 32.4569 647.006 32.597 647.373 32.6038H665.872C666.238 32.597 666.587 32.4569 666.844 32.2135C667.101 31.97 667.245 31.6428 667.245 31.3019C667.245 30.961 667.101 30.6337 666.844 30.3903C666.587 30.1469 666.238 30.0068 665.872 30Z" fill="white"/>
<path d="M665.872 36.0757H647.373C647.006 36.0824 646.657 36.2226 646.401 36.466C646.144 36.7094 646 37.0367 646 37.3776C646 37.7184 646.144 38.0457 646.401 38.2891C646.657 38.5326 647.006 38.6727 647.373 38.6795H665.872C666.238 38.6727 666.587 38.5326 666.844 38.2891C667.101 38.0457 667.245 37.7184 667.245 37.3776C667.245 37.0367 667.101 36.7094 666.844 36.466C666.587 36.2226 666.238 36.0824 665.872 36.0757Z" fill="white"/>
<path d="M665.872 42.1511H647.373C647.006 42.1579 646.657 42.298 646.401 42.5414C646.144 42.7849 646 43.1121 646 43.453C646 43.7939 646.144 44.1212 646.401 44.3646C646.657 44.608 647.006 44.7481 647.373 44.7549H665.872C666.238 44.7481 666.587 44.608 666.844 44.3646C667.101 44.1212 667.245 43.7939 667.245 43.453C667.245 43.1121 667.101 42.7849 666.844 42.5414C666.587 42.298 666.238 42.1579 665.872 42.1511Z" fill="white"/>
<path d="M318 177H44C39.4933 177.006 35.173 178.799 31.9862 181.986C28.7995 185.173 27.0064 189.493 27 194V540C27.0064 544.507 28.7995 548.827 31.9862 552.014C35.173 555.201 39.4933 556.994 44 557H318C322.507 556.994 326.827 555.201 330.014 552.014C333.201 548.827 334.994 544.507 335 540V194C334.994 189.493 333.201 185.173 330.014 181.986C326.827 178.8 322.507 177.006 318 177ZM333 540C332.995 543.977 331.413 547.789 328.601 550.601C325.789 553.413 321.977 554.995 318 555H44C40.0232 554.995 36.2107 553.413 33.3987 550.601C30.5867 547.789 29.0048 543.977 29 540V194C29.0048 190.023 30.5867 186.211 33.3987 183.399C36.2107 180.587 40.0232 179.005 44 179H318C321.977 179.005 325.789 180.587 328.601 183.399C331.413 186.211 332.995 190.023 333 194V540Z" fill="#3F3D56"/>
<path d="M264 416.63H98C81.043 416.548 80.9724 390.718 98.0008 390.63H264C280.945 390.709 281.037 416.541 264 416.63Z" fill="#CCCCCC"/>
<path d="M264 464.63H98C81.043 464.548 80.9724 438.718 98.0008 438.63H264C280.945 438.709 281.037 464.541 264 464.63Z" fill="#CCCCCC"/>
<path d="M264 512.63H98C81.043 512.548 80.9724 486.718 98.0008 486.63H264C280.945 486.709 281.037 512.541 264 512.63Z" fill="#CCCCCC"/>
<path d="M261 359.43H101C96.6254 359.425 92.4315 357.685 89.3382 354.591C86.2449 351.498 84.5049 347.304 84.5 342.93V253.33C84.5049 248.956 86.2449 244.762 89.3382 241.668C92.4315 238.575 96.6254 236.835 101 236.83H261C265.375 236.835 269.569 238.575 272.662 241.668C275.755 244.762 277.495 248.956 277.5 253.33V342.93C277.495 347.304 275.755 351.498 272.662 354.591C269.569 357.685 265.375 359.425 261 359.43Z" fill="#6C63FF"/>
<path d="M325 203C319.858 203 314.831 201.475 310.555 198.618C306.28 195.761 302.947 191.701 300.979 186.95C299.011 182.199 298.496 176.971 299.5 171.928C300.503 166.884 302.979 162.251 306.615 158.615C310.251 154.979 314.884 152.503 319.928 151.5C324.971 150.496 330.199 151.011 334.95 152.979C339.701 154.947 343.761 158.28 346.618 162.555C349.475 166.831 351 171.858 351 177C350.992 183.893 348.25 190.502 343.376 195.376C338.502 200.25 331.893 202.992 325 203Z" fill="#6C63FF"/>
<path d="M337 176H326V163.5C326 163.235 325.895 162.98 325.707 162.793C325.52 162.605 325.265 162.5 325 162.5C324.735 162.5 324.48 162.605 324.293 162.793C324.105 162.98 324 163.235 324 163.5V176H313C312.735 176 312.48 176.105 312.293 176.293C312.105 176.48 312 176.735 312 177C312 177.265 312.105 177.52 312.293 177.707C312.48 177.895 312.735 178 313 178H324V190.5C324 190.765 324.105 191.02 324.293 191.207C324.48 191.395 324.735 191.5 325 191.5C325.265 191.5 325.52 191.395 325.707 191.207C325.895 191.02 326 190.765 326 190.5V178H337C337.265 178 337.52 177.895 337.707 177.707C337.895 177.52 338 177.265 338 177C338 176.735 337.895 176.48 337.707 176.293C337.52 176.105 337.265 176 337 176Z" fill="white"/>
</svg>
