<svg width="639" height="606" viewBox="0 0 639 606" fill="none" xmlns="http://www.w3.org/2000/svg">
<rect width="639" height="606" fill="white"/>
<path d="M537.769 151.985H322.533C321.61 151.987 320.696 151.81 319.844 151.466C318.991 151.121 318.216 150.616 317.563 149.979C316.91 149.342 316.392 148.585 316.039 147.752C315.686 146.919 315.504 146.026 315.504 145.124C315.504 144.223 315.686 143.33 316.039 142.497C316.392 141.664 316.91 140.907 317.563 140.27C318.216 139.632 318.991 139.127 319.844 138.783C320.696 138.439 321.61 138.262 322.533 138.263H537.769C538.692 138.262 539.605 138.439 540.458 138.783C541.311 139.127 542.086 139.632 542.739 140.27C543.391 140.907 543.909 141.664 544.263 142.497C544.616 143.33 544.798 144.223 544.798 145.124C544.798 146.026 544.616 146.919 544.263 147.752C543.909 148.585 543.391 149.342 542.739 149.979C542.086 150.616 541.311 151.121 540.458 151.466C539.605 151.81 538.692 151.987 537.769 151.985Z" fill="#6C63FF"/>
<path d="M537.769 179.097H322.532C320.672 179.095 318.889 178.371 317.574 177.084C316.26 175.798 315.521 174.054 315.521 172.235C315.521 170.417 316.26 168.673 317.574 167.387C318.889 166.1 320.672 165.376 322.532 165.374H537.769C539.629 165.376 541.412 166.1 542.727 167.387C544.041 168.673 544.78 170.417 544.78 172.235C544.78 174.054 544.041 175.798 542.727 177.084C541.412 178.371 539.629 179.095 537.769 179.097Z" fill="#6C63FF"/>
<path d="M415.832 206.209H322.532C320.672 206.206 318.889 205.482 317.574 204.196C316.26 202.909 315.521 201.165 315.521 199.347C315.521 197.529 316.26 195.785 317.574 194.499C318.889 193.212 320.672 192.488 322.532 192.486H415.832C416.755 192.485 417.669 192.661 418.521 193.006C419.374 193.35 420.149 193.855 420.802 194.492C421.455 195.13 421.973 195.886 422.326 196.719C422.679 197.552 422.861 198.445 422.861 199.347C422.861 200.249 422.679 201.142 422.326 201.975C421.973 202.808 421.455 203.565 420.802 204.202C420.149 204.839 419.374 205.345 418.521 205.689C417.669 206.033 416.755 206.21 415.832 206.209Z" fill="#6C63FF"/>
<path d="M537.768 306.171H322.531C320.67 306.171 318.884 305.449 317.568 304.162C316.251 302.875 315.512 301.13 315.512 299.31C315.512 297.491 316.251 295.746 317.568 294.459C318.884 293.172 320.67 292.449 322.531 292.449H537.768C539.629 292.449 541.415 293.172 542.731 294.459C544.048 295.746 544.787 297.491 544.787 299.31C544.787 301.13 544.048 302.875 542.731 304.162C541.415 305.449 539.629 306.171 537.768 306.171Z" fill="#E6E6E6"/>
<path d="M537.768 333.283H322.532C320.67 333.283 318.884 332.56 317.568 331.273C316.251 329.986 315.512 328.241 315.512 326.422C315.512 324.602 316.251 322.857 317.568 321.57C318.884 320.283 320.67 319.56 322.532 319.56H537.768C539.63 319.56 541.415 320.283 542.732 321.57C544.048 322.857 544.788 324.602 544.788 326.422C544.788 328.241 544.048 329.986 542.732 331.273C541.415 332.56 539.63 333.283 537.768 333.283Z" fill="#E6E6E6"/>
<path d="M415.831 360.395H322.532C320.67 360.395 318.884 359.672 317.568 358.385C316.251 357.098 315.512 355.353 315.512 353.533C315.512 351.714 316.251 349.968 317.568 348.682C318.884 347.395 320.67 346.672 322.532 346.672H415.831C416.754 346.671 417.668 346.847 418.521 347.192C419.373 347.536 420.148 348.041 420.801 348.678C421.454 349.316 421.972 350.072 422.325 350.906C422.679 351.739 422.86 352.631 422.86 353.533C422.86 354.435 422.679 355.328 422.325 356.161C421.972 356.994 421.454 357.751 420.801 358.388C420.148 359.026 419.373 359.531 418.521 359.875C417.668 360.219 416.754 360.396 415.831 360.395Z" fill="#E6E6E6"/>
<path d="M537.768 468.835H322.531C321.61 468.835 320.697 468.658 319.845 468.313C318.993 467.968 318.22 467.463 317.568 466.825C316.916 466.188 316.399 465.432 316.046 464.6C315.693 463.767 315.512 462.875 315.512 461.974C315.512 461.073 315.693 460.181 316.046 459.348C316.399 458.516 316.916 457.759 317.568 457.122C318.22 456.485 318.993 455.98 319.845 455.635C320.697 455.29 321.61 455.113 322.531 455.113H537.768C538.69 455.113 539.602 455.29 540.454 455.635C541.306 455.98 542.079 456.485 542.731 457.122C543.383 457.759 543.9 458.516 544.253 459.348C544.606 460.181 544.787 461.073 544.787 461.974C544.787 462.875 544.606 463.767 544.253 464.6C543.9 465.432 543.383 466.188 542.731 466.825C542.079 467.463 541.306 467.968 540.454 468.313C539.602 468.658 538.69 468.835 537.768 468.835Z" fill="#E6E6E6"/>
<path d="M537.769 495.947H322.532C320.672 495.944 318.889 495.22 317.574 493.934C316.26 492.647 315.521 490.903 315.521 489.085C315.521 487.267 316.26 485.523 317.574 484.237C318.889 482.95 320.672 482.226 322.532 482.224H537.769C539.629 482.226 541.412 482.95 542.727 484.237C544.041 485.523 544.78 487.267 544.78 489.085C544.78 490.903 544.041 492.647 542.727 493.934C541.412 495.22 539.629 495.944 537.769 495.947Z" fill="#E6E6E6"/>
<path d="M415.831 523.058H322.532C320.67 523.058 318.884 522.335 317.568 521.048C316.251 519.762 315.512 518.016 315.512 516.197C315.512 514.377 316.251 512.632 317.568 511.345C318.884 510.058 320.67 509.335 322.532 509.335H415.831C416.754 509.334 417.668 509.511 418.521 509.855C419.373 510.199 420.148 510.704 420.801 511.342C421.454 511.979 421.972 512.736 422.325 513.569C422.679 514.402 422.86 515.295 422.86 516.197C422.86 517.099 422.679 517.991 422.325 518.825C421.972 519.658 421.454 520.414 420.801 521.052C420.148 521.689 419.373 522.194 418.521 522.538C417.668 522.883 416.754 523.059 415.831 523.058Z" fill="#E6E6E6"/>
<path d="M236.663 380.768H107.086C103.614 380.764 100.285 379.414 97.829 377.014C95.3734 374.614 93.9922 371.36 93.9883 367.965V284.879C93.9922 281.485 95.3734 278.231 97.829 275.83C100.285 273.43 103.614 272.08 107.086 272.076H236.663C240.136 272.08 243.465 273.43 245.921 275.83C248.377 278.231 249.758 281.485 249.762 284.879V367.965C249.758 371.36 248.377 374.614 245.921 377.014C243.465 379.414 240.136 380.764 236.663 380.768Z" fill="#E6E6E6"/>
<path d="M227.558 282.458H116.198C113.035 282.462 110.004 283.69 107.767 285.875C105.531 288.06 104.272 291.023 104.268 294.113V358.728C104.272 361.819 105.53 364.783 107.767 366.968C110.003 369.154 113.035 370.384 116.198 370.389H187.208C201.068 370.375 214.356 364.988 224.156 355.409C233.956 345.83 239.468 332.842 239.482 319.295V294.113C239.478 291.023 238.221 288.061 235.986 285.876C233.75 283.691 230.719 282.462 227.558 282.458Z" fill="white"/>
<path d="M196.087 304.303L195.755 304.889C198.717 297.754 196.023 288.96 190.739 283.58C185.454 278.199 178.108 275.739 170.874 274.763C165.504 274.039 159.93 274.06 154.824 275.982C147.429 278.767 141.78 285.212 137.063 291.917C134.906 294.983 132.785 298.48 132.999 302.313C133.199 305.87 135.359 308.888 137.128 311.906C138.897 314.924 140.375 318.668 139.105 321.962C138.348 323.925 136.749 325.338 135.452 326.944C134.154 328.55 133.087 330.72 133.714 332.735C133.992 333.505 134.47 334.192 135.101 334.729C135.733 335.265 136.495 335.632 137.315 335.794C138.902 336.053 140.526 336.015 142.099 335.683L183.332 329.594C186.134 329.18 188.792 328.11 191.079 326.475C193.366 324.84 195.215 322.689 196.468 320.205C197.721 317.721 198.341 314.977 198.275 312.208C198.208 309.439 197.458 306.727 196.087 304.303Z" fill="#2F2E41"/>
<path d="M165.417 329.312C176.551 329.312 185.577 320.49 185.577 309.608C185.577 298.726 176.551 289.904 165.417 289.904C154.284 289.904 145.258 298.726 145.258 309.608C145.258 320.49 154.284 329.312 165.417 329.312Z" fill="#FFB9B9"/>
<path d="M218.023 360.542C209.088 366.951 198.291 370.401 187.208 370.388H125.346C125.222 370.29 125.103 370.191 124.979 370.087L130.748 354.352C132.052 351.557 134.109 349.162 136.7 347.423C139.29 345.685 142.316 344.668 145.453 344.482L149.123 344.262L157.875 336.884C157.875 336.884 181.456 336.061 181.106 335.667L195.39 344.065L195.378 344.007L200.994 344.343C204.13 344.528 207.157 345.544 209.747 347.283C212.338 349.022 214.395 351.418 215.698 354.213L218.023 360.542Z" fill="#6C63FF"/>
<path d="M184.54 291.32C184.02 288.629 181.212 287.399 178.806 286.802C171.828 285.062 164.57 284.673 157.439 285.655C152.241 286.38 146.919 287.978 143.147 291.944C140.106 295.283 138.383 299.573 138.287 304.043C138.133 306.715 138.744 309.377 140.051 311.729C140.636 312.825 141.502 313.752 142.564 314.421C143.626 315.091 144.849 315.478 146.11 315.547L146.352 316.369C156.474 314.99 165.876 308.835 171.797 299.71C170.686 303.589 168.474 307.081 165.418 309.783C172.251 307.11 178.191 302.636 182.576 296.858C183.773 295.304 184.936 293.367 184.54 291.32Z" fill="#2F2E41"/>
<path d="M236.663 226.582H107.086C103.614 226.578 100.285 225.228 97.829 222.828C95.3734 220.428 93.9922 217.173 93.9883 213.779V130.693C93.9922 127.298 95.3734 124.044 97.829 121.644C100.285 119.244 103.614 117.894 107.086 117.89H236.663C240.136 117.894 243.465 119.244 245.921 121.644C248.377 124.044 249.758 127.298 249.762 130.693V213.779C249.758 217.173 248.377 220.428 245.921 222.828C243.465 225.228 240.136 226.578 236.663 226.582Z" fill="#CCCCCC"/>
<path d="M227.558 128.272H116.198C113.036 128.276 110.004 129.505 107.768 131.69C105.532 133.875 104.273 136.837 104.268 139.927V204.542C104.272 207.633 105.53 210.597 107.767 212.782C110.003 214.968 113.035 216.198 116.198 216.203H187.208C201.068 216.191 214.358 210.805 224.159 201.225C233.959 191.646 239.47 178.656 239.482 165.109V139.927C239.478 136.837 238.221 133.875 235.986 131.69C233.75 129.505 230.719 128.276 227.558 128.272Z" fill="white"/>
<path d="M145.112 140.807C150.356 140.807 154.608 136.652 154.608 131.525C154.608 126.399 150.356 122.243 145.112 122.243C139.867 122.243 135.615 126.399 135.615 131.525C135.615 136.652 139.867 140.807 145.112 140.807Z" fill="#2F2E41"/>
<path d="M160.306 176.079C173.592 176.079 184.363 165.551 184.363 152.565C184.363 139.578 173.592 129.05 160.306 129.05C147.019 129.05 136.248 139.578 136.248 152.565C136.248 165.551 147.019 176.079 160.306 176.079Z" fill="#2F2E41"/>
<path d="M162.298 176.073C173.094 176.073 181.847 167.518 181.847 156.965C181.847 146.412 173.094 137.857 162.298 137.857C151.501 137.857 142.748 146.412 142.748 156.965C142.748 167.518 151.501 176.073 162.298 176.073Z" fill="#9E616A"/>
<path d="M175.573 137.487C172.148 135.446 168.224 134.341 164.212 134.29C160.2 134.238 156.248 135.241 152.768 137.193C149.289 139.145 146.41 141.976 144.432 145.388C142.455 148.8 141.452 152.668 141.527 156.589C151.489 159.034 161.954 160.905 172.577 157.174L175.086 151.173L176.565 157.178C179.8 158.471 183.044 159.564 186.287 157.166C186.42 153.256 185.5 149.381 183.62 145.928C181.74 142.474 178.965 139.564 175.573 137.487Z" fill="#2F2E41"/>
<path d="M136.27 106.328C132.935 104.937 129.27 104.486 125.687 105.025C122.104 105.565 118.747 107.074 115.996 109.381C113.305 111.754 111.257 114.741 110.033 118.075C108.81 121.409 108.449 124.988 108.984 128.491C110.061 135.617 114.493 141.754 118.578 147.749C122.664 153.744 126.655 160.313 126.651 167.517C126.648 172.705 124.539 177.68 120.789 181.351C117.038 185.022 111.951 187.09 106.643 187.1C112.872 189.721 119.375 192.394 126.15 192.083C132.925 191.773 140.026 187.515 141.132 180.975C141.928 176.262 139.562 171.666 137.589 167.296C134.376 160.175 132.053 152.7 130.671 145.035C130.012 141.377 129.583 137.531 130.803 134.013C131.775 131.406 133.578 129.174 135.946 127.644C138.315 126.115 141.123 125.37 143.958 125.52L146.196 123.551C146.58 120.028 145.83 116.475 144.05 113.388C142.271 110.301 139.551 107.833 136.27 106.328Z" fill="#2F2E41"/>
<path d="M214.01 208.958C205.917 213.711 196.65 216.216 187.209 216.202H120.195L120.088 216.116L125.857 200.375C127.161 197.581 129.219 195.186 131.809 193.449C134.4 191.711 137.426 190.695 140.562 190.511L144.232 190.291L152.984 182.913C152.984 182.913 176.565 182.084 176.216 181.69L190.5 190.088L190.488 190.036L196.103 190.372C199.24 190.554 202.266 191.569 204.857 193.307C207.448 195.045 209.505 197.44 210.808 200.236L214.01 208.958Z" fill="#6C63FF"/>
<path d="M236.663 543.431H107.086C103.614 543.428 100.285 542.077 97.829 539.677C95.3734 537.277 93.9922 534.023 93.9883 530.629V447.542C93.9922 444.148 95.3734 440.894 97.829 438.494C100.285 436.094 103.614 434.744 107.086 434.74H236.663C240.136 434.744 243.465 436.094 245.921 438.494C248.377 440.894 249.758 444.148 249.762 447.542V530.629C249.758 534.023 248.377 537.277 245.921 539.677C243.465 542.077 240.136 543.428 236.663 543.431Z" fill="#E6E6E6"/>
<path d="M227.558 445.122H116.198C113.035 445.125 110.004 446.354 107.767 448.538C105.531 450.723 104.272 453.686 104.268 456.777V521.391C104.272 524.483 105.53 527.446 107.767 529.632C110.003 531.818 113.035 533.048 116.198 533.052H187.208C201.068 533.039 214.356 527.651 224.156 518.072C233.956 508.493 239.468 495.505 239.482 481.958V456.777C239.478 453.687 238.221 450.724 235.986 448.539C233.75 446.354 230.719 445.125 227.558 445.122Z" fill="white"/>
<path d="M171.779 486.227C186.593 486.227 198.602 474.489 198.602 460.01C198.602 445.53 186.593 433.793 171.779 433.793C156.966 433.793 144.957 445.53 144.957 460.01C144.957 474.489 156.966 486.227 171.779 486.227Z" fill="#2F2E41"/>
<path d="M171.79 489.671C185.023 489.671 195.751 479.185 195.751 466.25C195.751 453.315 185.023 442.829 171.79 442.829C158.556 442.829 147.828 453.315 147.828 466.25C147.828 479.185 158.556 489.671 171.79 489.671Z" fill="#FFB8B8"/>
<path d="M219.719 521.942C210.486 529.145 199.021 533.063 187.208 533.052H127.451L133.12 517.595C134.424 514.801 136.481 512.406 139.072 510.667C141.662 508.928 144.688 507.911 147.825 507.726L151.495 507.505L160.247 500.128C160.247 500.128 183.828 499.305 183.478 498.911L197.762 507.308L197.75 507.25L203.365 507.587C206.502 507.772 209.529 508.788 212.119 510.527C214.71 512.266 216.767 514.661 218.07 517.456L219.719 521.942Z" fill="#6C63FF"/>
<path d="M197.07 458.036C197.238 456.288 197.315 454.532 197.301 452.776C197.399 449.302 196.748 445.848 195.39 442.636C193.72 439.081 190.743 436.269 187.049 434.761C183.389 433.318 179.298 433.321 175.64 434.771C172.422 432.606 168.692 431.278 164.803 430.914C162.855 430.761 160.898 431.071 159.099 431.817C157.3 432.564 155.712 433.724 154.471 435.2C153.939 436.014 153.335 436.781 152.666 437.492C150.751 439.225 147.842 438.975 145.298 438.62C146.439 439.577 147.58 440.533 148.722 441.489C147.341 441.841 145.959 442.194 144.577 442.547C146.19 443.503 147.802 444.458 149.414 445.414C144.734 448.16 142.606 454.153 143.168 459.596C143.7 464.749 146.245 469.461 149.288 473.65C150.502 471.146 150.24 468.15 150.22 465.331C150.209 464.416 150.266 463.502 150.391 462.595C160.674 465.005 171.419 466.551 182.315 462.724L184.502 457.493C184.809 457.524 185.116 457.553 185.423 457.585L186.689 462.729C189.562 463.877 192.44 464.88 195.319 463.826C195.459 464.62 195.544 465.431 195.608 466.211C195.855 465.278 196.07 464.339 196.263 463.396C196.644 463.197 197.008 462.969 197.353 462.716C197.423 461.15 197.328 459.582 197.07 458.036Z" fill="#2F2E41"/>
<path d="M616.686 58.0461H25.8757C24.9984 58.0448 24.1572 57.5789 23.5368 56.7505C22.9164 55.9222 22.5674 54.7991 22.5664 53.6276V27.637C22.5674 26.4655 22.9164 25.3424 23.5368 24.5141C24.1572 23.6857 24.9984 23.2198 25.8757 23.2185H616.686C617.564 23.2198 618.405 23.6857 619.025 24.5141C619.646 25.3424 619.995 26.4655 619.996 27.637V53.6276C619.995 54.7991 619.646 55.9222 619.025 56.7505C618.405 57.5789 617.564 58.0448 616.686 58.0461Z" fill="#6C63FF"/>
<path d="M484.739 208.077C489.178 208.077 492.777 204.559 492.777 200.22C492.777 195.881 489.178 192.364 484.739 192.364C480.3 192.364 476.701 195.881 476.701 200.22C476.701 204.559 480.3 208.077 484.739 208.077Z" fill="#6C63FF"/>
<path d="M510.84 208.077C515.28 208.077 518.878 204.559 518.878 200.22C518.878 195.881 515.28 192.364 510.84 192.364C506.401 192.364 502.803 195.881 502.803 200.22C502.803 204.559 506.401 208.077 510.84 208.077Z" fill="#6C63FF"/>
<path d="M536.942 208.077C541.381 208.077 544.98 204.559 544.98 200.22C544.98 195.881 541.381 192.364 536.942 192.364C532.503 192.364 528.904 195.881 528.904 200.22C528.904 204.559 532.503 208.077 536.942 208.077Z" fill="#6C63FF"/>
<path d="M484.739 361.152C489.178 361.152 492.777 357.635 492.777 353.296C492.777 348.957 489.178 345.439 484.739 345.439C480.3 345.439 476.701 348.957 476.701 353.296C476.701 357.635 480.3 361.152 484.739 361.152Z" fill="#E6E6E6"/>
<path d="M510.84 361.152C515.28 361.152 518.878 357.635 518.878 353.296C518.878 348.957 515.28 345.439 510.84 345.439C506.401 345.439 502.803 348.957 502.803 353.296C502.803 357.635 506.401 361.152 510.84 361.152Z" fill="#E6E6E6"/>
<path d="M536.942 361.152C541.381 361.152 544.98 357.635 544.98 353.296C544.98 348.957 541.381 345.439 536.942 345.439C532.503 345.439 528.904 348.957 528.904 353.296C528.904 357.635 532.503 361.152 536.942 361.152Z" fill="#E6E6E6"/>
<path d="M484.739 524.103C489.178 524.103 492.777 520.586 492.777 516.247C492.777 511.908 489.178 508.391 484.739 508.391C480.3 508.391 476.701 511.908 476.701 516.247C476.701 520.586 480.3 524.103 484.739 524.103Z" fill="#E6E6E6"/>
<path d="M510.84 524.103C515.28 524.103 518.878 520.586 518.878 516.247C518.878 511.908 515.28 508.391 510.84 508.391C506.401 508.391 502.803 511.908 502.803 516.247C502.803 520.586 506.401 524.103 510.84 524.103Z" fill="#E6E6E6"/>
<path d="M536.942 524.103C541.381 524.103 544.98 520.586 544.98 516.247C544.98 511.908 541.381 508.391 536.942 508.391C532.503 508.391 528.904 511.908 528.904 516.247C528.904 520.586 532.503 524.103 536.942 524.103Z" fill="#E6E6E6"/>
<path d="M255.957 206.998L214.526 181.358C213.735 180.868 212.824 180.596 211.888 180.57C210.952 180.544 210.026 180.766 209.208 181.21C208.39 181.655 207.709 182.308 207.238 183.099C206.767 183.89 206.523 184.79 206.531 185.705L206.939 229.915C206.95 231.09 207.376 232.225 208.146 233.128C208.915 234.03 209.98 234.645 211.161 234.868C212.341 235.09 213.564 234.907 214.622 234.349C215.68 233.79 216.508 232.891 216.965 231.805L222.355 218.989L237.385 247.951C238.099 249.321 239.34 250.359 240.836 250.835C242.332 251.312 243.96 251.189 245.364 250.493C246.767 249.798 247.83 248.586 248.32 247.125C248.81 245.663 248.687 244.072 247.978 242.699L232.606 213.078L252.306 216.32C253.492 216.515 254.711 216.303 255.755 215.719C256.799 215.136 257.605 214.217 258.035 213.119C258.465 212.021 258.493 210.812 258.114 209.696C257.736 208.58 256.973 207.627 255.957 206.998Z" fill="#3F3D56"/>
<path d="M44.3902 48.7806C48.571 48.7806 51.9602 45.3973 51.9602 41.2237C51.9602 37.0501 48.571 33.6667 44.3902 33.6667C40.2095 33.6667 36.8203 37.0501 36.8203 41.2237C36.8203 45.3973 40.2095 48.7806 44.3902 48.7806Z" fill="white"/>
<path d="M66.9567 48.7806C71.1374 48.7806 74.5266 45.3973 74.5266 41.2237C74.5266 37.0501 71.1374 33.6667 66.9567 33.6667C62.7759 33.6667 59.3867 37.0501 59.3867 41.2237C59.3867 45.3973 62.7759 48.7806 66.9567 48.7806Z" fill="white"/>
<path d="M89.5231 48.7806C93.7038 48.7806 97.093 45.3973 97.093 41.2237C97.093 37.0501 93.7038 33.6667 89.5231 33.6667C85.3423 33.6667 81.9531 37.0501 81.9531 41.2237C81.9531 45.3973 85.3423 48.7806 89.5231 48.7806Z" fill="white"/>
<path d="M606.778 30.1838H584.807C584.371 30.1917 583.956 30.3544 583.652 30.637C583.347 30.9195 583.176 31.2995 583.176 31.6952C583.176 32.091 583.347 32.4709 583.652 32.7535C583.956 33.0361 584.371 33.1988 584.807 33.2066H606.778C607.213 33.1988 607.628 33.0361 607.933 32.7535C608.238 32.4709 608.409 32.091 608.409 31.6952C608.409 31.2995 608.238 30.9195 607.933 30.637C607.628 30.3544 607.213 30.1917 606.778 30.1838Z" fill="white"/>
<path d="M606.778 37.2373H584.807C584.371 37.2452 583.956 37.4078 583.652 37.6904C583.347 37.973 583.176 38.353 583.176 38.7487C583.176 39.1444 583.347 39.5244 583.652 39.807C583.956 40.0895 584.371 40.2522 584.807 40.2601H606.778C607.213 40.2522 607.628 40.0895 607.933 39.807C608.238 39.5244 608.409 39.1444 608.409 38.7487C608.409 38.353 608.238 37.973 607.933 37.6904C607.628 37.4078 607.213 37.2452 606.778 37.2373Z" fill="white"/>
<path d="M606.778 44.2903H584.807C584.371 44.2981 583.956 44.4608 583.652 44.7434C583.347 45.026 583.176 45.4059 583.176 45.8017C583.176 46.1974 583.347 46.5773 583.652 46.8599C583.956 47.1425 584.371 47.3052 584.807 47.3131H606.778C607.213 47.3052 607.628 47.1425 607.933 46.8599C608.238 46.5773 608.409 46.1974 608.409 45.8017C608.409 45.4059 608.238 45.026 607.933 44.7434C607.628 44.4608 607.213 44.2981 606.778 44.2903Z" fill="white"/>
</svg>
