<svg width="805" height="487" viewBox="0 0 805 487" fill="none" xmlns="http://www.w3.org/2000/svg">
<rect width="805" height="487" fill="white"/>
<rect x="46" y="11" width="748" height="33" rx="5" fill="#6C63FF"/>
<rect x="46" y="26" width="748" height="21" fill="#6C63FF"/>
<path d="M649.923 150.5H129.077C123.511 150.5 119 156.421 119 163.724V407.276C119 414.579 123.511 420.5 129.077 420.5H649.923C655.489 420.5 660 414.579 660 407.276V163.724C660 156.421 655.489 150.5 649.923 150.5Z" fill="#F2F2F2"/>
<path d="M64.5 34C68.6421 34 72 30.6421 72 26.5C72 22.3579 68.6421 19 64.5 19C60.3579 19 57 22.3579 57 26.5C57 30.6421 60.3579 34 64.5 34Z" fill="white"/>
<path d="M90.5 34C94.6421 34 98 30.6421 98 26.5C98 22.3579 94.6421 19 90.5 19C86.3579 19 83 22.3579 83 26.5C83 30.6421 86.3579 34 90.5 34Z" fill="white"/>
<path d="M116.5 34C120.642 34 124 30.6421 124 26.5C124 22.3579 120.642 19 116.5 19C112.358 19 109 22.3579 109 26.5C109 30.6421 112.358 34 116.5 34Z" fill="white"/>
<path d="M496.577 85H408.423C405.428 85 403 87.4281 403 90.4232V106.577C403 109.572 405.428 112 408.423 112H496.577C499.572 112 502 109.572 502 106.577V90.4232C502 87.4281 499.572 85 496.577 85Z" fill="#6C63FF"/>
<path d="M640.577 85H552.423C549.428 85 547 87.4281 547 90.4232V106.577C547 109.572 549.428 112 552.423 112H640.577C643.572 112 646 109.572 646 106.577V90.4232C646 87.4281 643.572 85 640.577 85Z" fill="#6C63FF"/>
<path d="M777.457 21H758.414C758.036 21.0074 757.677 21.1613 757.412 21.4285C757.148 21.6957 757 22.055 757 22.4292C757 22.8035 757.148 23.1628 757.412 23.43C757.677 23.6972 758.036 23.8511 758.414 23.8585H777.457C777.834 23.8511 778.194 23.6972 778.458 23.43C778.723 23.1628 778.871 22.8035 778.871 22.4292C778.871 22.055 778.723 21.6957 778.458 21.4285C778.194 21.1613 777.834 21.0074 777.457 21Z" fill="white"/>
<path d="M777.457 27.6699H758.414C758.036 27.6773 757.677 27.8312 757.412 28.0984C757.148 28.3656 757 28.725 757 29.0992C757 29.4734 757.148 29.8327 757.412 30.0999C757.677 30.3671 758.036 30.521 758.414 30.5284H777.457C777.834 30.521 778.194 30.3671 778.458 30.0999C778.723 29.8327 778.871 29.4734 778.871 29.0992C778.871 28.725 778.723 28.3656 778.458 28.0984C778.194 27.8312 777.834 27.6773 777.457 27.6699Z" fill="white"/>
<path d="M777.457 34.3396H758.414C758.036 34.347 757.677 34.5009 757.412 34.7681C757.148 35.0353 757 35.3946 757 35.7688C757 36.1431 757.148 36.5024 757.412 36.7696C757.677 37.0368 758.036 37.1907 758.414 37.1981H777.457C777.834 37.1907 778.194 37.0368 778.458 36.7696C778.723 36.5024 778.871 36.1431 778.871 35.7688C778.871 35.3946 778.723 35.0353 778.458 34.7681C778.194 34.5009 777.834 34.347 777.457 34.3396Z" fill="white"/>
<path d="M486.11 466.596C485.506 466.566 484.914 466.401 484.372 466.11C483.829 465.819 483.348 465.409 482.958 464.905C482.568 464.402 482.279 463.816 482.107 463.185C481.935 462.553 481.885 461.89 481.961 461.237L482.275 458.545C482.334 458.029 482.278 457.505 482.111 457.017C481.944 456.53 481.67 456.094 481.314 455.747L479.458 453.94C478.85 453.349 478.406 452.584 478.177 451.732C477.947 450.88 477.941 449.976 478.159 449.12C478.377 448.265 478.811 447.493 479.41 446.892C480.01 446.291 480.752 445.884 481.553 445.719L484 445.213C484.469 445.116 484.91 444.896 485.284 444.572C485.658 444.249 485.954 443.831 486.146 443.355L487.151 440.871C487.48 440.059 488.011 439.363 488.683 438.862C489.356 438.362 490.144 438.076 490.959 438.037C491.773 437.999 492.581 438.209 493.291 438.645C494.001 439.08 494.585 439.723 494.977 440.501L496.175 442.88C496.405 443.336 496.733 443.725 497.131 444.013C497.53 444.3 497.986 444.478 498.462 444.531L500.939 444.803C501.75 444.893 502.522 445.227 503.168 445.769C503.813 446.312 504.306 447.04 504.591 447.871C504.877 448.703 504.943 449.605 504.782 450.475C504.621 451.346 504.24 452.149 503.681 452.796L501.975 454.772C501.647 455.15 501.409 455.61 501.282 456.111C501.154 456.612 501.14 457.14 501.241 457.648L501.768 460.301C501.94 461.169 501.886 462.071 501.612 462.907C501.338 463.743 500.855 464.479 500.217 465.031C499.579 465.583 498.812 465.93 498.002 466.032C497.193 466.135 496.373 465.989 495.636 465.61L493.383 464.454C492.952 464.231 492.476 464.126 491.999 464.149C491.521 464.171 491.056 464.32 490.643 464.582L488.491 465.947C487.77 466.407 486.944 466.632 486.11 466.596Z" fill="#6C63FF"/>
<path d="M521.186 465.486C520.075 465.43 519.024 464.919 518.244 464.055C517.772 463.512 517.421 462.858 517.216 462.145C517.01 461.431 516.957 460.676 517.059 459.936L517.347 457.467C517.409 456.941 517.352 456.407 517.181 455.91C517.011 455.414 516.732 454.97 516.369 454.616L514.648 452.941C514.14 452.468 513.735 451.879 513.463 451.215C513.19 450.551 513.057 449.829 513.074 449.102C513.111 448.025 513.484 446.994 514.13 446.178C514.776 445.361 515.657 444.808 516.63 444.609L519.048 444.109C519.527 444.01 519.976 443.786 520.357 443.456C520.738 443.126 521.039 442.7 521.235 442.214L522.137 439.985C522.459 439.139 522.989 438.406 523.669 437.867C524.35 437.328 525.153 437.004 525.991 436.93C526.813 436.879 527.631 437.084 528.35 437.519C529.069 437.955 529.66 438.605 530.054 439.392L531.237 441.742C531.472 442.208 531.806 442.604 532.212 442.897C532.619 443.19 533.084 443.371 533.569 443.424L535.865 443.677C536.531 443.734 537.177 443.952 537.756 444.315C538.335 444.678 538.832 445.177 539.211 445.777C539.761 446.672 540.016 447.744 539.933 448.818C539.851 449.891 539.436 450.903 538.757 451.686L537.071 453.639C536.738 454.025 536.496 454.493 536.366 455.004C536.235 455.514 536.221 456.051 536.324 456.569L536.81 459.018C536.966 459.725 536.975 460.461 536.838 461.173C536.701 461.885 536.421 462.554 536.017 463.133C535.408 463.984 534.55 464.584 533.586 464.832C532.621 465.081 531.608 464.964 530.713 464.5L528.483 463.356C528.043 463.13 527.56 463.024 527.074 463.048C526.588 463.071 526.115 463.222 525.695 463.488L523.567 464.838C522.847 465.297 522.02 465.522 521.186 465.486Z" fill="#6C63FF"/>
<path d="M556.354 465.325C555.75 465.295 555.158 465.13 554.616 464.839C554.073 464.548 553.592 464.138 553.202 463.634C552.813 463.131 552.523 462.545 552.351 461.914C552.179 461.282 552.13 460.619 552.205 459.966L552.519 457.274C552.579 456.758 552.523 456.233 552.355 455.746C552.188 455.258 551.915 454.822 551.558 454.476L549.702 452.669C549.094 452.078 548.65 451.313 548.421 450.461C548.191 449.609 548.185 448.704 548.403 447.849C548.621 446.993 549.055 446.222 549.655 445.62C550.254 445.019 550.997 444.613 551.797 444.448L554.244 443.941C554.714 443.844 555.154 443.625 555.528 443.301C555.902 442.978 556.198 442.56 556.39 442.084L557.395 439.6C557.724 438.788 558.255 438.092 558.928 437.591C559.601 437.09 560.389 436.805 561.203 436.766C562.017 436.728 562.825 436.938 563.535 437.374C564.245 437.809 564.829 438.452 565.222 439.23L566.419 441.608C566.649 442.065 566.977 442.454 567.375 442.742C567.774 443.029 568.231 443.207 568.706 443.259L571.184 443.532C571.995 443.621 572.766 443.956 573.412 444.498C574.057 445.04 574.55 445.768 574.836 446.6C575.121 447.432 575.187 448.334 575.026 449.204C574.865 450.074 574.484 450.878 573.925 451.525L572.219 453.5C571.892 453.879 571.654 454.339 571.526 454.84C571.398 455.341 571.384 455.869 571.485 456.377L572.012 459.03C572.184 459.897 572.13 460.8 571.856 461.636C571.582 462.472 571.099 463.207 570.461 463.76C569.823 464.312 569.056 464.659 568.247 464.761C567.437 464.864 566.618 464.717 565.881 464.339L563.628 463.183C563.196 462.96 562.72 462.855 562.243 462.877C561.766 462.9 561.3 463.048 560.888 463.311L558.735 464.676C558.014 465.135 557.188 465.361 556.354 465.325Z" fill="#6C63FF"/>
<path d="M591.821 464.468C591.217 464.439 590.625 464.273 590.082 463.982C589.54 463.691 589.059 463.281 588.669 462.778C588.279 462.275 587.99 461.689 587.818 461.057C587.646 460.426 587.596 459.763 587.672 459.109L587.985 456.418C588.045 455.902 587.989 455.377 587.822 454.89C587.655 454.402 587.381 453.966 587.025 453.619L585.169 451.813C584.561 451.221 584.117 450.457 583.888 449.605C583.658 448.753 583.652 447.848 583.87 446.993C584.088 446.137 584.521 445.365 585.121 444.764C585.721 444.163 586.463 443.757 587.264 443.591L589.711 443.085C590.18 442.988 590.621 442.768 590.995 442.445C591.369 442.121 591.665 441.704 591.857 441.228L592.862 438.744C593.191 437.931 593.721 437.236 594.394 436.735C595.067 436.234 595.855 435.948 596.67 435.91C597.484 435.872 598.292 436.082 599.002 436.517C599.712 436.953 600.296 437.596 600.688 438.374L601.886 440.752C602.115 441.209 602.444 441.598 602.842 441.885C603.241 442.173 603.697 442.351 604.173 442.403L606.65 442.676C607.461 442.765 608.233 443.1 608.879 443.642C609.524 444.184 610.017 444.912 610.302 445.744C610.588 446.576 610.654 447.477 610.493 448.348C610.332 449.218 609.951 450.022 609.392 450.669L607.686 452.644C607.358 453.023 607.12 453.483 606.993 453.984C606.865 454.485 606.851 455.012 606.952 455.521L607.479 458.174C607.651 459.041 607.597 459.944 607.323 460.78C607.049 461.615 606.566 462.351 605.928 462.903C605.29 463.456 604.523 463.803 603.713 463.905C602.904 464.007 602.084 463.861 601.347 463.483L599.094 462.326C598.663 462.104 598.187 461.999 597.71 462.021C597.232 462.043 596.767 462.192 596.354 462.455L594.202 463.82C593.481 464.279 592.655 464.504 591.821 464.468Z" fill="#6C63FF"/>
<path d="M626.813 462.563C626.209 462.533 625.617 462.368 625.075 462.077C624.532 461.786 624.051 461.376 623.661 460.872C623.272 460.369 622.982 459.783 622.81 459.152C622.638 458.52 622.589 457.857 622.664 457.204L622.978 454.512C623.038 453.996 622.981 453.472 622.814 452.984C622.647 452.497 622.373 452.061 622.017 451.714L620.161 449.907C619.553 449.316 619.109 448.551 618.88 447.699C618.65 446.847 618.644 445.943 618.862 445.087C619.08 444.232 619.514 443.46 620.113 442.859C620.713 442.258 621.456 441.851 622.256 441.686L624.703 441.18C625.173 441.083 625.613 440.863 625.987 440.539C626.361 440.216 626.657 439.798 626.849 439.322L627.854 436.838C628.183 436.026 628.714 435.33 629.387 434.829C630.059 434.329 630.848 434.043 631.662 434.004C632.476 433.966 633.284 434.176 633.994 434.612C634.704 435.047 635.288 435.69 635.681 436.468L636.878 438.847C637.108 439.303 637.436 439.692 637.834 439.98C638.233 440.267 638.69 440.445 639.165 440.498L641.643 440.77C642.454 440.86 643.225 441.194 643.871 441.736C644.516 442.279 645.009 443.007 645.295 443.838C645.58 444.67 645.646 445.572 645.485 446.442C645.324 447.313 644.943 448.116 644.384 448.763L642.678 450.739C642.35 451.117 642.113 451.577 641.985 452.078C641.857 452.579 641.843 453.107 641.944 453.615L642.471 456.268C642.643 457.136 642.589 458.038 642.315 458.874C642.041 459.71 641.558 460.446 640.92 460.998C640.282 461.55 639.515 461.897 638.706 461.999C637.896 462.102 637.077 461.956 636.34 461.577L634.087 460.421C633.655 460.198 633.179 460.093 632.702 460.116C632.225 460.138 631.759 460.287 631.347 460.549L629.194 461.914C628.473 462.374 627.647 462.599 626.813 462.563Z" fill="#6C63FF"/>
<path d="M381 355.5C419.66 355.5 451 324.16 451 285.5C451 246.84 419.66 215.5 381 215.5C342.34 215.5 311 246.84 311 285.5C311 324.16 342.34 355.5 381 355.5Z" fill="#6C63FF"/>
<path d="M401.743 290.283L384.335 308.213C383.956 308.595 383.504 308.895 383.005 309.096C382.506 309.297 381.971 309.395 381.434 309.382H381.376C380.837 309.394 380.302 309.296 379.801 309.095C379.301 308.895 378.847 308.594 378.466 308.213L361.067 290.283C361.009 290.217 360.943 290.159 360.885 290.101C360.19 289.356 359.82 288.366 359.854 287.349C359.888 286.331 360.324 285.368 361.067 284.672C361.862 283.925 362.911 283.509 364.002 283.509C365.092 283.509 366.141 283.925 366.936 284.672L377.248 295.448V267.662C377.296 266.592 377.755 265.581 378.529 264.841C379.303 264.1 380.334 263.687 381.405 263.687C382.476 263.687 383.506 264.1 384.281 264.841C385.055 265.581 385.514 266.592 385.562 267.662V295.448L395.866 284.672C396.662 283.925 397.712 283.509 398.804 283.509C399.896 283.509 400.946 283.925 401.743 284.672C401.801 284.73 401.859 284.788 401.925 284.854C402.618 285.6 402.987 286.589 402.953 287.606C402.919 288.623 402.484 289.586 401.743 290.283Z" fill="white"/>
</svg>
