<?xml version="1.0" standalone="no"?>
<!DOCTYPE svg PUBLIC "-//W3C//DTD SVG 20010904//EN"
 "http://www.w3.org/TR/2001/REC-SVG-20010904/DTD/svg10.dtd">
<svg version="1.0" xmlns="http://www.w3.org/2000/svg"
 width="500.000000pt" height="500.000000pt" viewBox="0 0 500.000000 500.000000"
 preserveAspectRatio="xMidYMid meet">
<metadata>
Created by potrace 1.14, written by Peter Selinger 2001-2017
</metadata>
<g transform="translate(0.000000,500.000000) scale(0.100000,-0.100000)"
fill="#000000" stroke="none">
<path d="M1419 3486 c-2 -2 -22 -7 -44 -10 -251 -40 -489 -193 -631 -407 -104
-157 -137 -273 -138 -489 -1 -158 6 -206 46 -325 103 -302 395 -543 723 -596
78 -12 236 -15 306 -5 67 9 204 52 278 87 105 49 292 181 291 206 0 5 -21 31
-47 58 -25 28 -64 70 -86 94 -27 30 -44 41 -52 35 -7 -5 -42 -30 -77 -56 -103
-75 -205 -120 -308 -136 -19 -3 -78 -5 -130 -6 -178 0 -316 59 -450 194 -125
125 -177 243 -185 420 -13 291 158 537 437 631 99 34 223 44 318 27 120 -21
286 -106 369 -189 28 -29 35 -31 45 -18 6 8 46 58 89 112 43 53 76 101 73 106
-16 26 -171 131 -247 168 -150 74 -241 95 -420 99 -86 2 -158 2 -160 0z"/>
<path d="M2879 3482 c-16 -3 -17 -77 -17 -913 l-1 -909 32 -1 c46 -1 228 -1
255 0 l22 1 0 274 0 274 223 0 c177 -1 347 7 387 17 3 1 25 5 50 9 70 13 196
71 258 118 148 115 222 283 222 506 0 179 -45 311 -141 416 -103 113 -233 174
-429 202 -52 7 -827 13 -861 6z m836 -285 c113 -29 153 -46 204 -91 112 -99
130 -347 33 -474 -43 -57 -53 -65 -117 -96 -84 -40 -153 -49 -417 -50 l-248
-2 0 363 0 363 263 -4 c144 -2 271 -6 282 -9z"/>
</g>
</svg>
