<svg width="575" height="575" viewBox="0 0 575 575" fill="none" xmlns="http://www.w3.org/2000/svg">
<rect width="575" height="575" rx="100" fill="white"/>
<path d="M293 502.861C411.741 502.861 508 406.603 508 287.861C508 169.12 411.741 72.8613 293 72.8613C174.259 72.8613 78 169.12 78 287.861C78 406.603 174.259 502.861 293 502.861Z" fill="#E6E6E6"/>
<path d="M478 287.861C478.022 316.728 471.278 345.198 458.311 370.989C445.344 396.779 426.513 419.172 403.33 436.371C401.78 437.531 400.2 438.661 398.61 439.761C367.608 461.311 330.756 472.861 293 472.861C255.244 472.861 218.392 461.311 187.39 439.761C185.8 438.661 184.22 437.531 182.67 436.371C159.502 419.157 140.684 396.761 127.718 370.974C114.753 345.187 108 316.724 108 287.861C108 258.998 114.753 230.536 127.718 204.749C140.684 178.962 159.502 156.566 182.67 139.351C184.22 138.191 185.8 137.061 187.39 135.961C218.392 114.411 255.244 102.861 293 102.861C330.756 102.861 367.608 114.411 398.61 135.961C400.2 137.061 401.78 138.191 403.33 139.351C426.513 156.551 445.344 178.944 458.311 204.734C471.278 230.524 478.022 258.994 478 287.861V287.861Z" fill="white"/>
<path d="M293 456.861C386.336 456.861 462 381.197 462 287.861C462 194.525 386.336 118.861 293 118.861C199.664 118.861 124 194.525 124 287.861C124 381.197 199.664 456.861 293 456.861Z" fill="#6C63FF"/>
<path opacity="0.2" d="M293.441 119.333C290.879 119.333 288.333 119.401 285.799 119.513C328.513 123.267 368.203 143.116 396.828 175.041C425.453 206.965 440.872 248.577 439.963 291.445C439.053 334.314 421.881 375.234 391.927 405.915C361.974 436.596 321.477 454.744 278.643 456.681C283.52 457.105 288.454 457.333 293.441 457.333C338.263 457.333 381.249 439.528 412.942 407.835C444.636 376.141 462.441 333.155 462.441 288.334C462.441 243.512 444.636 200.526 412.942 168.832C381.249 137.139 338.263 119.334 293.441 119.334V119.333Z" fill="black"/>
<path d="M293.5 106.861C292.042 106.864 290.645 107.444 289.614 108.475C288.583 109.506 288.003 110.903 288 112.361V136.361C288 137.82 288.579 139.219 289.611 140.25C290.642 141.282 292.041 141.861 293.5 141.861C294.959 141.861 296.358 141.282 297.389 140.25C298.421 139.219 299 137.82 299 136.361V112.361C298.997 110.903 298.417 109.506 297.386 108.475C296.355 107.444 294.958 106.864 293.5 106.861V106.861Z" fill="white"/>
<path d="M403.33 139.351C401.78 138.191 400.2 137.061 398.61 135.961C397.656 135.899 396.702 136.086 395.843 136.506C394.983 136.925 394.248 137.561 393.71 138.351L380.2 158.181C379.379 159.386 379.071 160.868 379.343 162.301C379.614 163.734 380.444 165 381.65 165.821C382.855 166.642 384.337 166.95 385.77 166.678C387.203 166.406 388.469 165.576 389.29 164.371L402.8 144.541C403.314 143.789 403.632 142.92 403.724 142.013C403.817 141.107 403.681 140.192 403.33 139.351V139.351Z" fill="white"/>
<path d="M464.71 229.771C464.438 229.103 464.037 228.494 463.53 227.98C463.023 227.467 462.42 227.058 461.755 226.777C461.09 226.497 460.377 226.35 459.655 226.346C458.933 226.341 458.218 226.479 457.55 226.751L435.31 235.781C433.96 236.331 432.883 237.394 432.317 238.738C431.75 240.081 431.741 241.594 432.289 242.944C432.838 244.295 433.9 245.372 435.243 245.94C436.586 246.507 438.099 246.519 439.45 245.971L461.69 236.941C463.039 236.388 464.114 235.324 464.68 233.98C465.246 232.636 465.257 231.123 464.71 229.771Z" fill="white"/>
<path d="M205.799 158.181L192.289 138.351C191.75 137.561 191.015 136.925 190.156 136.506C189.297 136.086 188.343 135.899 187.389 135.961C185.799 137.061 184.219 138.191 182.669 139.351C182.317 140.192 182.182 141.107 182.274 142.013C182.367 142.92 182.685 143.789 183.199 144.541L196.709 164.371C197.53 165.576 198.796 166.406 200.228 166.678C201.661 166.95 203.143 166.642 204.349 165.821C205.554 165 206.384 163.734 206.656 162.301C206.928 160.868 206.62 159.386 205.799 158.181V158.181Z" fill="white"/>
<path d="M150.689 235.781L128.449 226.751C127.098 226.202 125.584 226.213 124.241 226.78C122.897 227.347 121.834 228.425 121.285 229.776C120.736 231.127 120.747 232.641 121.314 233.985C121.881 235.328 122.958 236.392 124.309 236.941L146.549 245.971C147.9 246.518 149.413 246.507 150.756 245.939C152.099 245.372 153.161 244.294 153.71 242.944C154.258 241.593 154.248 240.08 153.682 238.737C153.116 237.394 152.039 236.331 150.689 235.781V235.781Z" fill="white"/>
<path d="M293.5 433.861C292.042 433.864 290.645 434.444 289.614 435.475C288.583 436.506 288.003 437.903 288 439.361V463.361C288 464.82 288.579 466.219 289.611 467.25C290.642 468.282 292.041 468.861 293.5 468.861C294.959 468.861 296.358 468.282 297.389 467.25C298.421 466.219 299 464.82 299 463.361V439.361C298.997 437.903 298.417 436.506 297.386 435.475C296.355 434.444 294.958 433.864 293.5 433.861V433.861Z" fill="white"/>
<path d="M402.8 431.181L389.29 411.351C388.883 410.754 388.363 410.243 387.759 409.847C387.156 409.451 386.48 409.178 385.77 409.044C385.061 408.909 384.332 408.915 383.625 409.063C382.918 409.21 382.247 409.495 381.65 409.901C381.053 410.307 380.542 410.827 380.146 411.431C379.75 412.035 379.477 412.711 379.343 413.421C379.208 414.13 379.214 414.859 379.361 415.566C379.508 416.273 379.793 416.944 380.2 417.541L393.71 437.371C394.248 438.161 394.983 438.797 395.843 439.216C396.702 439.635 397.656 439.823 398.61 439.761C400.2 438.661 401.78 437.531 403.33 436.371C403.681 435.53 403.817 434.615 403.724 433.709C403.632 432.802 403.314 431.933 402.8 431.181Z" fill="white"/>
<path d="M461.689 338.781L439.449 329.751C438.098 329.202 436.584 329.213 435.241 329.78C433.897 330.347 432.834 331.425 432.285 332.776C431.736 334.127 431.747 335.641 432.314 336.985C432.881 338.328 433.958 339.392 435.309 339.941L457.549 348.971C458.9 349.518 460.413 349.507 461.756 348.939C463.099 348.372 464.161 347.294 464.71 345.944C465.258 344.593 465.248 343.08 464.682 341.737C464.116 340.394 463.039 339.331 461.689 338.781V338.781Z" fill="white"/>
<path d="M204.351 409.901C203.145 409.08 201.663 408.772 200.23 409.044C198.798 409.316 197.532 410.146 196.711 411.351L183.201 431.181C182.687 431.933 182.369 432.802 182.276 433.709C182.184 434.615 182.319 435.53 182.671 436.371C184.221 437.531 185.801 438.661 187.391 439.761C188.345 439.823 189.299 439.635 190.158 439.216C191.017 438.797 191.752 438.161 192.291 437.371L205.801 417.541C206.207 416.944 206.492 416.273 206.639 415.566C206.786 414.859 206.793 414.13 206.658 413.421C206.523 412.711 206.25 412.035 205.854 411.431C205.459 410.827 204.948 410.307 204.351 409.901V409.901Z" fill="white"/>
<path d="M153.71 332.771C153.438 332.103 153.037 331.494 152.53 330.98C152.023 330.467 151.42 330.058 150.755 329.777C150.09 329.497 149.377 329.35 148.655 329.346C147.933 329.341 147.218 329.479 146.55 329.751L124.31 338.781C122.96 339.331 121.883 340.394 121.317 341.738C120.75 343.081 120.741 344.594 121.289 345.944C121.838 347.295 122.9 348.372 124.243 348.94C125.586 349.507 127.099 349.519 128.45 348.971L150.69 339.941C152.039 339.388 153.114 338.324 153.68 336.98C154.246 335.636 154.257 334.123 153.71 332.771V332.771Z" fill="white"/>
<path d="M300.636 285.132C301.144 288.138 300.439 291.223 298.675 293.71C296.911 296.197 294.233 297.883 291.228 298.398L193.63 314.999C192.141 315.252 190.617 315.21 189.144 314.874C187.672 314.538 186.28 313.916 185.048 313.042C183.816 312.168 182.769 311.061 181.965 309.782C181.161 308.503 180.617 307.079 180.364 305.59C180.111 304.101 180.153 302.577 180.489 301.105C180.825 299.633 181.447 298.241 182.321 297.009C183.195 295.777 184.302 294.729 185.581 293.926C186.86 293.122 188.284 292.578 189.773 292.325L287.371 275.723C290.377 275.216 293.462 275.921 295.949 277.685C298.436 279.449 300.122 282.127 300.636 285.132V285.132Z" fill="#3F3D56"/>
<path d="M403.355 393.263C401.953 394.673 400.049 395.469 398.06 395.477C396.072 395.485 394.162 394.703 392.748 393.304L287.685 289.065C286.275 287.664 285.48 285.76 285.473 283.772C285.466 281.784 286.248 279.875 287.649 278.464C289.049 277.053 290.952 276.255 292.94 276.246C294.928 276.237 296.838 277.018 298.25 278.417L403.313 382.656C404.723 384.058 405.519 385.962 405.527 387.951C405.535 389.939 404.754 391.849 403.355 393.263V393.263Z" fill="#3F3D56"/>
<path d="M293 300.861C300.18 300.861 306 295.041 306 287.861C306 280.682 300.18 274.861 293 274.861C285.82 274.861 280 280.682 280 287.861C280 295.041 285.82 300.861 293 300.861Z" fill="#CCCCCC"/>
<path d="M203.456 62.4399C183.501 93.8124 153.055 114.633 115.506 128.31C114.764 128.866 113.92 129.27 113.022 129.5C112.124 129.729 111.19 129.779 110.272 129.648C109.354 129.516 108.472 129.205 107.674 128.732C106.877 128.259 106.181 127.634 105.625 126.892V126.892C85.229 99.6595 89.8344 60.7388 116.753 39.9301C123.261 34.9079 130.701 31.2286 138.643 29.1056C146.584 26.9826 154.868 26.4583 163.014 27.5631C171.16 28.6679 179.005 31.3797 186.094 35.5413C193.183 39.7028 199.375 45.2311 204.311 51.8051L204.875 52.5584C205.43 53.3003 205.834 54.1445 206.064 55.0426C206.293 55.9408 206.344 56.8753 206.212 57.7929C206.08 58.7105 205.769 59.5931 205.296 60.3905C204.823 61.1878 204.198 61.8842 203.456 62.4399V62.4399Z" fill="#E6E6E6"/>
<path d="M381.69 51.8051C386.625 45.2311 392.817 39.7028 399.906 35.5413C406.995 31.3797 414.84 28.6679 422.986 27.5631C431.132 26.4583 439.416 26.9826 447.358 29.1056C455.299 31.2286 462.74 34.9079 469.248 39.93C496.166 60.7388 500.771 99.6595 480.375 126.892C479.82 127.634 479.123 128.259 478.326 128.732C477.529 129.205 476.646 129.516 475.729 129.648C474.811 129.779 473.876 129.729 472.978 129.5C472.08 129.27 471.236 128.866 470.494 128.31C435.637 114.965 407.052 91.8709 382.544 62.4399C381.046 61.3176 380.054 59.646 379.788 57.7929C379.522 55.9397 380.003 54.0568 381.126 52.5583L381.69 51.8051Z" fill="#E6E6E6"/>
<path d="M372.943 474.129C371.672 474.843 370.736 476.032 370.34 477.435C369.944 478.838 370.12 480.341 370.83 481.615L402.572 538.337C403.284 539.61 404.473 540.547 405.877 540.943C407.28 541.34 408.784 541.162 410.056 540.45C411.329 539.738 412.267 538.549 412.663 537.145C413.06 535.742 412.883 534.238 412.171 532.965L380.429 476.243C379.715 474.972 378.526 474.036 377.123 473.639C375.72 473.243 374.217 473.419 372.943 474.129V474.129Z" fill="#E6E6E6"/>
<path d="M205.571 476.243L173.829 532.966C173.117 534.239 172.94 535.742 173.336 537.146C173.733 538.549 174.67 539.738 175.943 540.45C177.216 541.162 178.719 541.34 180.123 540.944C181.527 540.547 182.715 539.61 183.428 538.337L215.17 481.615C215.523 480.984 215.748 480.291 215.833 479.573C215.918 478.856 215.86 478.129 215.664 477.434C215.468 476.738 215.137 476.089 214.689 475.522C214.242 474.954 213.687 474.481 213.057 474.128C212.426 473.775 211.733 473.55 211.015 473.466C210.298 473.381 209.571 473.439 208.876 473.635C208.18 473.831 207.531 474.163 206.964 474.61C206.397 475.058 205.923 475.613 205.571 476.243H205.571Z" fill="#E6E6E6"/>
<path d="M409 552.861C418.389 552.861 426 545.25 426 535.861C426 526.472 418.389 518.861 409 518.861C399.611 518.861 392 526.472 392 535.861C392 545.25 399.611 552.861 409 552.861Z" fill="#E6E6E6"/>
<path d="M421 117.861C430.389 117.861 438 110.25 438 100.861C438 91.4725 430.389 83.8613 421 83.8613C411.611 83.8613 404 91.4725 404 100.861C404 110.25 411.611 117.861 421 117.861Z" fill="#E6E6E6"/>
<path d="M292 77.8613C301.389 77.8613 309 70.2502 309 60.8613C309 51.4725 301.389 43.8613 292 43.8613C282.611 43.8613 275 51.4725 275 60.8613C275 70.2502 282.611 77.8613 292 77.8613Z" fill="#E6E6E6"/>
<path d="M169 115.861C178.389 115.861 186 108.25 186 98.8613C186 89.4725 178.389 81.8613 169 81.8613C159.611 81.8613 152 89.4725 152 98.8613C152 108.25 159.611 115.861 169 115.861Z" fill="#E6E6E6"/>
<path d="M180 552.861C189.389 552.861 197 545.25 197 535.861C197 526.472 189.389 518.861 180 518.861C170.611 518.861 163 526.472 163 535.861C163 545.25 170.611 552.861 180 552.861Z" fill="#E6E6E6"/>
</svg>
