<svg width="40" height="40" viewBox="0 0 40 40" fill="none" xmlns="http://www.w3.org/2000/svg">
<path d="M20 40C31.0457 40 40 31.0457 40 20C40 8.9543 31.0457 0 20 0C8.9543 0 0 8.9543 0 20C0 31.0457 8.9543 40 20 40Z" fill="#E4E4E4"/>
<path d="M19.9996 36.6364C29.1877 36.6364 36.636 29.188 36.636 20C36.636 10.812 29.1877 3.36365 19.9996 3.36365C10.8116 3.36365 3.36328 10.812 3.36328 20C3.36328 29.188 10.8116 36.6364 19.9996 36.6364Z" fill="#6C63FF"/>
<path d="M18.5689 26C18.5391 26 18.5093 25.9993 18.4794 25.9978C18.2159 25.9852 17.9582 25.916 17.724 25.7949C17.4899 25.6739 17.2848 25.5039 17.1229 25.2967L14.5666 22.0269C14.2689 21.6452 14.1356 21.1618 14.1958 20.6824C14.256 20.2031 14.5049 19.7672 14.8878 19.4701L14.9797 19.3989C15.3633 19.1028 15.8494 18.9702 16.3312 19.0301C16.813 19.09 17.2512 19.3375 17.5498 19.7184C17.6939 19.9027 17.8763 20.0539 18.0845 20.1615C18.2928 20.2692 18.5219 20.3308 18.7563 20.3422C18.9907 20.3536 19.2248 20.3144 19.4426 20.2274C19.6604 20.1404 19.8567 20.0076 20.0181 19.8381L25.2087 14.3871C25.3741 14.2134 25.5723 14.0738 25.792 13.9763C26.0116 13.8788 26.2484 13.8253 26.4888 13.8188C26.7292 13.8124 26.9686 13.8531 27.1932 13.9387C27.4178 14.0242 27.6233 14.153 27.7978 14.3176L27.8826 14.3974C28.2352 14.7298 28.4406 15.1878 28.4537 15.6708C28.4668 16.1539 28.2865 16.6223 27.9525 16.973L19.898 25.431C19.727 25.6108 19.5209 25.754 19.2924 25.8518C19.0639 25.9496 18.8177 26.0001 18.5689 26V26Z" fill="white"/>
</svg>
