<svg width="575" height="575" viewBox="0 0 575 575" fill="none" xmlns="http://www.w3.org/2000/svg">
<rect width="575" height="575" rx="100" fill="white"/>
<path d="M70.3375 108H346.663C356.031 108.011 365.014 111.807 371.638 118.556C378.263 125.305 381.989 134.455 382 143.999V298.001C381.989 307.545 378.263 316.695 371.638 323.444C365.014 330.193 356.031 333.989 346.663 334H70.3375C60.9686 333.989 51.9865 330.193 45.3617 323.444C38.7369 316.695 35.0105 307.545 35 298.001V143.999C35.0105 134.455 38.7369 125.305 45.3617 118.556C51.9865 111.807 60.9686 108.011 70.3375 108V108Z" fill="#CCCCCC"/>
<path d="M70.1139 118H345.886C352.544 118.008 358.928 120.707 363.636 125.507C368.344 130.307 370.993 136.814 371 143.602V297.398C370.993 304.186 368.344 310.693 363.636 315.493C358.928 320.293 352.544 322.992 345.886 323H70.1139C63.4556 322.992 57.0721 320.293 52.3639 315.493C47.6558 310.693 45.0075 304.186 45 297.398V143.602C45.0075 136.814 47.6558 130.307 52.3639 125.507C57.0721 120.707 63.4556 118.008 70.1139 118Z" fill="white"/>
<path d="M73.2209 389C72.3951 388.998 71.5779 388.828 70.8161 388.5C69.679 388.03 68.7064 387.217 68.0256 386.169C67.3448 385.121 66.9874 383.886 67.0003 382.626V329.388L136 327L77.5524 387.122C76.9872 387.714 76.3133 388.185 75.5697 388.508C74.8262 388.83 74.0278 388.997 73.2209 389V389Z" fill="#CCCCCC"/>
<path d="M311.931 157H104.069C95.7465 157 89 163.716 89 172V172C89 180.284 95.7465 187 104.069 187H311.931C320.253 187 327 180.284 327 172C327 163.716 320.253 157 311.931 157Z" fill="#CCCCCC"/>
<path d="M311.931 205H104.069C95.7465 205 89 211.94 89 220.5V220.5C89 229.06 95.7465 236 104.069 236H311.931C320.253 236 327 229.06 327 220.5C327 211.94 320.253 205 311.931 205Z" fill="#CCCCCC"/>
<path d="M311.995 254H105.005C96.7182 254 90 260.94 90 269.5V269.5C90 278.06 96.7182 285 105.005 285H311.995C320.282 285 327 278.06 327 269.5C327 260.94 320.282 254 311.995 254Z" fill="#CCCCCC"/>
<path d="M505.764 186H230.236C220.894 186.011 211.938 189.807 205.332 196.556C198.726 203.305 195.01 212.455 195 221.999V376.001C195.01 385.545 198.726 394.695 205.332 401.444C211.938 408.193 220.894 411.989 230.236 412H505.764C515.106 411.989 524.062 408.193 530.668 401.444C537.274 394.695 540.99 385.545 541 376.001V221.999C540.99 212.455 537.274 203.305 530.668 196.556C524.062 189.807 515.106 186.011 505.764 186V186Z" fill="#6C63FF"/>
<path d="M505.886 197H230.114C223.456 197.008 217.072 199.707 212.364 204.507C207.656 209.307 205.007 215.814 205 222.602V376.398C205.007 383.186 207.656 389.693 212.364 394.493C217.072 399.293 223.456 401.992 230.114 402H505.886C512.544 401.992 518.928 399.293 523.636 394.493C528.344 389.693 530.993 383.186 531 376.398V222.602C530.993 215.814 528.344 209.307 523.636 204.507C518.928 199.707 512.544 197.008 505.886 197Z" fill="white"/>
<path d="M485.295 465.122L426 405L496 407.388V460.626C496.013 461.886 495.65 463.121 494.96 464.169C494.269 465.217 493.282 466.03 492.129 466.5C491.356 466.828 490.527 466.998 489.689 467C488.87 466.997 488.06 466.83 487.306 466.508C486.552 466.185 485.868 465.714 485.295 465.122V465.122Z" fill="#6C63FF"/>
<path d="M307 319C317.493 319 326 310.27 326 299.5C326 288.73 317.493 280 307 280C296.507 280 288 288.73 288 299.5C288 310.27 296.507 319 307 319Z" fill="#6C63FF"/>
<path d="M368 319C378.493 319 387 310.27 387 299.5C387 288.73 378.493 280 368 280C357.507 280 349 288.73 349 299.5C349 310.27 357.507 319 368 319Z" fill="#6C63FF"/>
<path d="M429 319C439.493 319 448 310.27 448 299.5C448 288.73 439.493 280 429 280C418.507 280 410 288.73 410 299.5C410 310.27 418.507 319 429 319Z" fill="#6C63FF"/>
</svg>
