<svg width="575" height="575" viewBox="0 0 575 575" fill="none" xmlns="http://www.w3.org/2000/svg">
<rect width="575" height="575" rx="100" fill="white"/>
<path d="M288 507C409.503 507 508 408.503 508 287C508 165.497 409.503 67 288 67C166.497 67 68 165.497 68 287C68 408.503 166.497 507 288 507Z" fill="#E4E4E4"/>
<path d="M288 470C389.068 470 471 388.068 471 287C471 185.932 389.068 104 288 104C186.932 104 105 185.932 105 287C105 388.068 186.932 470 288 470Z" fill="#6C63FF"/>
<path d="M272.26 353C271.932 353 271.604 352.992 271.276 352.976C268.377 352.837 265.542 352.076 262.966 350.745C260.391 349.413 258.135 347.543 256.354 345.263L228.235 309.296C224.96 305.098 223.493 299.779 224.156 294.507C224.818 289.235 227.555 284.439 231.767 281.172L232.779 280.388C236.999 277.131 242.345 275.672 247.645 276.331C252.945 276.99 257.765 279.713 261.05 283.903C262.635 285.93 264.641 287.593 266.932 288.777C269.222 289.961 271.743 290.639 274.322 290.764C276.9 290.889 279.475 290.459 281.871 289.502C284.266 288.545 286.426 287.084 288.201 285.22L345.298 225.258C347.117 223.348 349.297 221.812 351.713 220.74C354.129 219.667 356.734 219.078 359.379 219.007C362.024 218.936 364.656 219.384 367.127 220.325C369.598 221.267 371.858 222.683 373.778 224.493L374.71 225.372C378.589 229.028 380.849 234.066 380.993 239.379C381.137 244.693 379.154 249.845 375.479 253.704L286.88 346.741C284.999 348.719 282.732 350.294 280.219 351.37C277.705 352.446 274.997 353.001 272.26 353V353Z" fill="white"/>
</svg>
