<svg width="575" height="575" viewBox="0 0 575 575" fill="none" xmlns="http://www.w3.org/2000/svg">
<rect width="575" height="575" rx="100" fill="white"/>
<path d="M289 504C406.084 504 501 409.084 501 292C501 174.916 406.084 80 289 80C171.916 80 77 174.916 77 292C77 409.084 171.916 504 289 504Z" fill="#6C63FF"/>
<path opacity="0.1" d="M289 474C389.516 474 471 392.516 471 292C471 191.484 389.516 110 289 110C188.484 110 107 191.484 107 292C107 392.516 188.484 474 289 474Z" fill="black"/>
<path d="M280.181 400V373.428C266.845 373.165 253.048 368.428 245 361.851L250.518 344.224C260.082 351.443 271.68 355.405 283.63 355.536C299.957 355.536 310.994 344.75 310.994 329.754C310.994 315.283 302.026 306.339 285.01 298.445C261.556 287.922 247.069 275.819 247.069 252.931C247.069 231.093 260.636 214.519 281.791 210.572V184H296.048V209.52C306.678 209.667 317.048 212.86 325.941 218.728L320.192 236.093C311.662 230.212 301.555 227.092 291.219 227.147C273.514 227.147 266.845 239.249 266.845 249.773C266.845 263.454 275.353 270.294 295.358 279.766C319.042 290.816 331 304.497 331 327.912C331 348.696 318.353 368.166 294.668 372.636V400H280.181Z" fill="#F2F2F2"/>
</svg>
