<svg width="575" height="575" viewBox="0 0 575 575" fill="none" xmlns="http://www.w3.org/2000/svg">
<rect width="575" height="575" rx="100" fill="white"/>
<path d="M295.498 506C326.702 506 351.998 481.376 351.998 451C351.998 420.624 326.702 396 295.498 396C264.294 396 238.998 420.624 238.998 451C238.998 481.376 264.294 506 295.498 506Z" fill="#6C63FF"/>
<path d="M279.176 376.458C271.829 373.859 265.414 369.246 260.708 363.176C256.002 357.107 253.207 349.842 252.66 342.26L237.489 128.346C236.987 121.26 237.98 114.15 240.409 107.451C242.838 100.752 246.65 94.6063 251.612 89.3923C256.573 84.1782 262.58 80.0057 269.261 77.131C275.943 74.2564 283.159 72.7405 290.466 72.6764C297.772 72.6123 305.015 74.0014 311.749 76.7584C318.483 79.5154 324.566 83.5819 329.623 88.7081C334.681 93.8342 338.607 99.9117 341.159 106.567C343.712 113.222 344.837 120.315 344.466 127.408L333.268 341.554C332.948 347.683 331.153 353.655 328.028 358.988C324.903 364.321 320.535 368.868 315.275 372.262C310.014 375.657 304.008 377.804 297.739 378.533C291.47 379.262 285.112 378.551 279.176 376.458L279.176 376.458Z" fill="#6C63FF"/>
</svg>
