<svg width="575" height="575" viewBox="0 0 575 575" fill="none" xmlns="http://www.w3.org/2000/svg">
<rect width="575" height="575" rx="100" fill="white"/>
<ellipse cx="287.5" cy="381.5" rx="194.5" ry="93.5" fill="#6C63FF"/>
<path d="M288 337C343.229 337 388 292.228 388 237C388 181.771 343.229 137 288 137C232.772 137 188 181.771 188 237C188 292.228 232.772 337 288 337Z" fill="white"/>
<path d="M288 309C343.229 309 388 264.228 388 209C388 153.771 343.229 109 288 109C232.772 109 188 153.771 188 209C188 264.228 232.772 309 288 309Z" fill="#6C63FF"/>
</svg>
